<svg width="64" height="64" viewBox="0 0 64 64" fill="none" xmlns="http://www.w3.org/2000/svg">
<path d="M52 28C52 38 42 42 42 42H18C18 42 8 38 8 28C8 18 18 14 18 14H42C42 14 52 18 52 28Z" fill="#6D4C41"/>
<path d="M12 18C12 12.4772 16.4772 8 22 8H38C43.5228 8 48 12.4772 48 18V20H12V18Z" fill="#A1887F"/>
<path d="M52 28H56C59.3137 28 62 30.6863 62 34C62 37.3137 59.3137 40 56 40H52" stroke="#6D4C41" stroke-width="4" stroke-linecap="round" stroke-linejoin="round"/>
<rect x="8" y="42" width="34" height="8" rx="4" fill="#A1887F"/>
</svg>
